<svg xmlns="http://www.w3.org/2000/svg" version="1.1" xmlns:xlink="http://www.w3.org/1999/xlink" xmlns:svgjs="http://svgjs.com/svgjs" width="1440" height="560" preserveAspectRatio="none" viewBox="0 0 1440 560"><g mask="url(&quot;#SvgjsMask1001&quot;)" fill="none"><rect width="1440" height="560" x="0" y="0" fill="rgba(255, 255, 255, 1)"></rect><path d="M -656.7181545570646,217 C -560.72,262 -368.72,451.8 -176.71815455706462,442 C 15.28,432.2 111.28,178 303.2818454429354,168 C 495.28,158 591.28,406.4 783.2818454429354,392 C 975.28,377.6 1131.94,117 1263.2818454429353,96 C 1394.63,75 1404.66,248.8 1440,287" stroke="rgba(51, 121, 194, 0.58)" stroke-width="2"></path><path d="M -553.0526399948566,432 C -457.05,385.6 -265.05,197.8 -73.0526399948566,200 C 118.95,202.2 214.95,463 406.9473600051434,443 C 598.95,423 694.95,101.6 886.9473600051434,100 C 1078.95,98.4 1256.34,399.8 1366.9473600051433,435 C 1477.56,470.2 1425.39,307.8 1440,276" stroke="rgba(51, 121, 194, 0.58)" stroke-width="2"></path><path d="M -127.37443614617814,483 C -31.37,421.2 160.63,214.2 352.62556385382186,174 C 544.63,133.8 640.63,261.4 832.6255638538219,282 C 1024.63,302.6 1120.63,250.6 1312.6255638538219,277 C 1504.63,303.4 1767.15,453.8 1792.6255638538219,414 C 1818.1,374.2 1510.53,145.2 1440,78" stroke="rgba(51, 121, 194, 0.58)" stroke-width="2"></path><path d="M -584.8379676304928,436 C -488.84,378 -296.84,146.2 -104.83796763049277,146 C 87.16,145.8 183.16,412.4 375.16203236950724,435 C 567.16,457.6 663.16,272.2 855.1620323695072,259 C 1047.16,245.8 1218.19,408.8 1335.1620323695072,369 C 1452.13,329.2 1419.03,121.8 1440,60" stroke="rgba(51, 121, 194, 0.58)" stroke-width="2"></path></g><defs><mask id="SvgjsMask1001"><rect width="1440" height="560" fill="#ffffff"></rect></mask></defs></svg>